<?xml version="1.0" encoding="UTF-8"?><svg xmlns:xlink="http://www.w3.org/1999/xlink" fill-opacity="1" color-rendering="auto" color-interpolation="auto" text-rendering="auto" stroke="black" stroke-linecap="square" stroke-miterlimit="10" shape-rendering="auto" stroke-opacity="1" fill="black" preserveAspectRatio="xMinYMin meet" stroke-dasharray="none" font-weight="normal" stroke-width="1" viewBox="0 0 793 1122" font-family="'Dialog'" font-style="normal" stroke-linejoin="miter" font-size="12" stroke-dashoffset="0" image-rendering="auto" xmlns="http://www.w3.org/2000/svg">
<!--Generated by the Batik Graphics2D SVG Generator-->
<defs id="genericDefs"/>
<g>
<defs id="defs1">
<clipPath clipPathUnits="userSpaceOnUse" id="clipPath1">
<path d="M0 0 L793 0 L793 1122 L0 1122 L0 0 Z"/>
</clipPath>
</defs>
<g font-family="'SimSun'" font-size="14">
<text x="134 148 162 176 190 204 211.7333 225.7333 239.7333 253.7333 267.7333 281.7333 295.7333 309.7333 323.7333 337.7333 351.7333 365.7333 379.7333 393.7333 407.7333 421.7333 435.7333 449.7333 463.7333 477.7333 491.7333 505.7333 519.7333 533.7333 547.7333 561.7333 575.7333 589.7333 603.7333 617.7333 631.7333 645.7333 659.7333" xml:space="preserve" y="111.2174" stroke="none">情人节即到，如何与自己的伴侣度过这一年一度美妙快乐的日子呢？逛街购物旅游放松？</text>
<text x="120 134 148 162 176 190 204 218 232 246 260 274 288 302 316 330 341.9111 355.9111 369.9111 383.9111 397.9111 411.9111 425.9111 439.9111 453.9111 465.8222 479.8222 493.8222 507.8222 521.8222 535.8222 549.8222 563.8222 577.8222 591.8222 605.8222 619.8222 633.8222 647.8222 661.8222" xml:space="preserve" y="132.0174" stroke="none">想来大部分人都不会选择这种方式，辛苦劳累筋疲力尽，第二天还要拖着疲劳的身子上班，</text>
<text x="120 134 148 162 176 190 204 218 232 242.8667 256.8667 270.8667 284.8667 298.8667 312.8667 326.8667 340.8667 354.8667 368.8667 382.8667 396.8667 410.8667 424.8667 438.8667 452.8667 466.8667 480.8667 494.8667 508.8667 522.8667 536.8667 550.8667 564.8667 578.8667 589.7334 603.7334 617.7334 631.7334 645.7334 659.7334" xml:space="preserve" y="152.8174" stroke="none">头发蓬松无精打采。所以大部分的选择都会是在那温馨的家里坐上一桌饭菜，两人恩爱相抚</text>
<text x="120 134 148 160.4333 174.4333 188.4333 202.4333 216.4333 228.8667 242.8667 256.8667 270.8667 284.8667 298.8667 312.8667 326.8667 340.8667 354.8667 368.8667 382.8667 396.8667 410.8667 423.3 437.3 451.3 465.3 479.3 493.3 507.3 521.3 535.3 549.3 563.3 577.3 591.3 605.3 617.7333 631.7333 645.7333 659.7333" xml:space="preserve" y="173.6174" stroke="none">以沫，油蜜相调，吃个粉红晚餐后进入爱的窝里，为对方献上自己最疼最柔的爱。这是有伴</text>
<text x="120 134 148 162 176 190 204 218 232 246 260 274 288 302 316 330 344 358 372 386 400 414 428 442 456 470 484 498 512 526 540 554 568 582 596" xml:space="preserve" y="194.4174" stroke="none">侣的情人节，没有的可就有点惨了，一个人孤孤单单对着寒墙冷壁，怅然无语。</text>
<text x="134 148 162 176 190 204 218 232 246 260 274 288 302" xml:space="preserve" y="215.2174" stroke="none">其实大可不必如此，春意谷（</text>
<a fill="blue" xlink:href="http://www.chunyigu.com" font-family="'Times New Roman'" clip-path="url(#clipPath1)" stroke="none">
<text x="316 326.108 336.216 345.4148 348.9148" y="215.2174" xml:space="preserve">www.c</text>
</a>
</g>
<g fill="blue" text-rendering="optimizeSpeed" font-size="14" font-family="'Times New Roman'" stroke="blue">
<line y2="217" fill="none" x1="317" clip-path="url(#clipPath1)" x2="357" y1="217"/>
<a xlink:href="http://www.chunyigu.com" text-rendering="auto" clip-path="url(#clipPath1)" stroke="none">
<text x="355.1308 362.1308 369.1308 376.1308 383.1448 387.0368 394.0368 401.0368 404.5368 410.7528 417.7528" y="215.2174" xml:space="preserve">hunyigu.com</text>
</a>
<line y2="217" fill="none" x1="356" clip-path="url(#clipPath1)" x2="428" y1="217"/>
</g>
<g font-family="'SimSun'" font-size="14">
<text x="435.6448 449.6448 463.6448 477.6448 491.6448 505.6448 519.6448 533.6448 547.6448 561.6448 575.6448 589.6448 603.6448 617.6448 631.6448 645.6448 659.6448" xml:space="preserve" y="215.2174" stroke="none">）已经为各位准备了一场的快乐爱侣大</text>
<text x="120 134 148 160.4333 174.4333 188.4333 202.4333 216.4333 230.4333 242.8667 256.8667 270.8667 284.8667 298.8667 312.8667 326.8667 340.8667 354.8667 368.8667 382.8667 395.3 409.3 423.3 437.3 451.3 465.3 479.3 493.3 505.7333 519.7333 533.7333 547.7333 561.7333 575.7333 589.7333 603.7333 617.7333 631.7333 645.7333 659.7333" xml:space="preserve" y="236.0174" stroke="none">放送，只要你愿意，大家就可远离孤单寂寞，饥渴空旷的日子。而且这不仅仅是针对单身人</text>
<text x="120 134 146.4333 160.4333 174.4333 188.4333 202.4333 216.4333 230.4333 244.4333 258.4333 272.4333 284.8667 298.8667 312.8667 326.8667 340.8667 354.8667 368.8667 382.8667 396.8667 410.8667 424.8667 438.8667 452.8667 466.8667 480.8667 494.8667 508.8667 521.3 535.3 549.3 563.3 577.3 591.3 603.7334 617.7334 631.7334 645.7334 659.7334" xml:space="preserve" y="256.8174" stroke="none">士，对于两人恩爱的世界，春意谷还为之准备上了各种情趣用具，为你的伴侣，为你们鱼水</text>
<text x="120 134 148 162 176 190 204 218 232 246 260 274 288 298.8667 312.8667 326.8667 340.8667 354.8667 368.8667 382.8667 396.8667 410.8667 424.8667 435.7333 449.7333 463.7333 477.7333 491.7333 505.7333 519.7333 533.7333 547.7333 561.7333 575.7333 589.7333 603.7333 617.7333 631.7333 645.7333 659.7333" xml:space="preserve" y="277.6174" stroke="none">相溶的爱献上最佳的调味剂，享受畅快淋漓的感受，下面我们就来介绍下春意谷情人节惊喜</text>
<text x="120 134 148 162 176 190 204 218 232 246" xml:space="preserve" y="298.4174" stroke="none">盛爱狂欢钜惠大放送：</text>
<text x="144 158.1821 172.3641 186.5462 200.7282" xml:space="preserve" y="340.0174" stroke="none">优惠劵，满</text>
<text x="218.4103 225.4103 232.4103" xml:space="preserve" y="340.0174" font-family="'Times New Roman'" stroke="none">120</text>
<text x="242.9103 257.0923 271.2744" xml:space="preserve" y="340.0174" stroke="none">元就有</text>
<text x="288.9564 295.9564" xml:space="preserve" y="340.0174" font-family="'Times New Roman'" stroke="none">10</text>
<text x="306.4564 320.6384 334.8205 349.0025 363.1845 377.3666 391.5486 405.7307" xml:space="preserve" y="340.0174" stroke="none">元优惠劵赠送、满</text>
<text x="423.4127 430.4127 437.4127" xml:space="preserve" y="340.0174" font-family="'Times New Roman'" stroke="none">199</text>
<text x="447.9127" xml:space="preserve" y="340.0174" clip-path="url(#clipPath1)" stroke="none">送</text>
<text x="465.5947 472.5947" xml:space="preserve" y="340.0174" font-family="'Times New Roman'" stroke="none">20</text>
<text x="483.0947 497.2768 511.4588 525.6409 539.8229 554.005" xml:space="preserve" y="340.0174" stroke="none">远优惠劵、满</text>
<text x="571.6871 578.6871 585.6871" xml:space="preserve" y="340.0174" font-family="'Times New Roman'" stroke="none">299</text>
<text x="596.1871 610.3691 624.5512" xml:space="preserve" y="340.0174" stroke="none">元即送</text>
<text x="642.2333 649.2333" xml:space="preserve" y="340.0174" font-family="'Times New Roman'" stroke="none">30</text>
<text x="659.7333" xml:space="preserve" y="340.0174" clip-path="url(#clipPath1)" stroke="none">元</text>
<text x="144 158 172 186 200 214 228 242 256 270 284 298 312 326 340" xml:space="preserve" y="360.8174" stroke="none">优惠劵，三种优惠劵都是限于一个</text>
<text x="357.5 362.162" xml:space="preserve" y="360.8174" font-family="'Times New Roman'" stroke="none">ID</text>
<text x="375.77 389.77 403.77 417.77" xml:space="preserve" y="360.8174" stroke="none">购买者。</text>
<text x="120 136.8667 153.7333 170.6 187.4667 204.3333 221.2 238.0667 254.9333 271.8 288.6667 305.5334 322.4 339.2667 356.1334 373 389.8667 406.7334 423.6 440.4667 457.3334 474.2 491.0667 507.9334 524.8 541.6667 558.5333 575.4 592.2667 609.1333 625.9999 642.8666 659.7333" xml:space="preserve" y="402.4174" stroke="none">限于篇幅，上面仅仅列举几个优惠商品，感兴趣的朋友可以访问春意谷网站</text>
<text x="120" xml:space="preserve" y="423.2174" clip-path="url(#clipPath1)" stroke="none">（</text>
<a fill="blue" xlink:href="http://www.chunyigu.com" font-family="'Times New Roman'" clip-path="url(#clipPath1)" stroke="none">
<text x="134 144.108 154.216 163.4148 166.9148 173.1308 180.1308 187.1308 194.1308 201.1448 205.0368 212.0368 219.0368 222.5368 228.7528 235.7528" y="423.2174" xml:space="preserve">www.chunyigu.com</text>
</a>
</g>
<g fill="blue" text-rendering="optimizeSpeed" font-size="14" font-family="'Times New Roman'" stroke="blue">
<line y2="425" fill="none" x1="135" clip-path="url(#clipPath1)" x2="246" y1="425"/>
</g>
<g font-family="'SimSun'" font-size="14">
<text x="253.6448 267.6448 281.6448 295.6448 309.6448 323.6448 337.6448 351.6448 365.6448 379.6448 393.6448 407.6448 421.6448 435.6448 449.6448 463.6448 477.6448 491.6448 505.6448 519.6448 533.6448 547.6448 561.6448 575.6448 589.6448 603.6448 617.6448 631.6448 645.6448 659.6448" xml:space="preserve" y="423.2174" stroke="none">）详细了解，定会惊喜不断！为了让大家具体了解，下面简练介绍下</text>
<text x="120 134 148 162 176 190 204 218 232 246 260 274 288 302 316" xml:space="preserve" y="444.0174" stroke="none">春意谷网站，让大家能放心购买：</text>
<text x="134 141 148 154.4805" xml:space="preserve" y="464.8174" font-family="'Times New Roman'" stroke="none">2011</text>
<text x="164.6145" xml:space="preserve" y="464.8174" clip-path="url(#clipPath1)" stroke="none">年</text>
<text x="181.7485" xml:space="preserve" y="464.8174" clip-path="url(#clipPath1)" font-family="'Times New Roman'" stroke="none">7</text>
<text x="191.8826" xml:space="preserve" y="464.8174" clip-path="url(#clipPath1)" stroke="none">月</text>
<text x="209.0166" xml:space="preserve" y="464.8174" clip-path="url(#clipPath1)" font-family="'Times New Roman'" stroke="none">7</text>
<text x="219.1506 233.1506" xml:space="preserve" y="464.8174" stroke="none">日，</text>
<text x="240.1507 246.3667 253.3667 260.3667 266.8471" xml:space="preserve" y="464.8174" font-family="'Times New Roman'" stroke="none">“2011</text>
<text x="276.9812 290.9812 304.9812 318.9812 332.9812 346.9812 360.9812 374.9812 388.9812 402.9812 416.9812 430.9812" xml:space="preserve" y="464.8174" stroke="none">中国电子商务运营创新论坛</text>
<text x="444.9812" xml:space="preserve" y="464.8174" clip-path="url(#clipPath1)" font-family="'Times New Roman'" stroke="none">”</text>
<text x="451.1972 465.1972 479.1972 493.1972 507.1972 521.1971 533.7333 547.7333 561.7333 575.7333 589.7333 603.7333 617.7333 631.7333 645.7333 659.7333" xml:space="preserve" y="464.8174" stroke="none">在北京召开。春意谷商城以稳健的经</text>
<text x="120 134 148 162 176 190 204 218 232 246 260 274 288 302 309.7333 323.7333 337.7333 351.7333 365.7333 379.7333 393.7333 407.7333 421.7333 435.7333 449.7333 463.7333 477.7333 491.7333 505.7333 519.7333 533.7333 547.7333 561.7333 575.7333 589.7333 603.7333 617.7333 631.7333 645.7333 659.7333" xml:space="preserve" y="485.6174" stroke="none">营风格和创新的电子商务形式，与阿里巴巴等知名电商网站一起荣登最具价值行业电子商务</text>
<text x="120 134.1239 148.2477 162.3716 176.4955 190.6194 204.7432 218.8671 232.991" xml:space="preserve" y="506.4174" stroke="none">网站评选榜单，荣获</text>
<text x="247.1148 254.0448 260.9749 267.9048 274.8348" y="506.4174" font-family="'Times New Roman'" stroke="none" font-weight="bold" xml:space="preserve">“2011</text>
<text x="285.2648 299.4054 313.546 327.6866 341.8272 355.9678 370.1084 384.249 398.3896 412.5302 426.6708 440.8114 454.952 469.0926 483.2332 497.3737 511.5143 525.655 539.7956" xml:space="preserve" y="506.4174" font-weight="bold" stroke="none">中国最具价值的成人用品行业电子商务网站</text>
<text x="553.9362" y="506.4174" clip-path="url(#clipPath1)" font-family="'Times New Roman'" stroke="none" font-weight="bold" xml:space="preserve">”</text>
<text x="560.8662 574.9901 589.114 603.2379 617.3618 631.4857 645.6096 659.7335" xml:space="preserve" y="506.4174" stroke="none">，并由此扬名国内</text>
<text x="120 134 148 162 176 190 204 218 232 246 260 274 288 302 316 330 344 358 372 386 400 414 428 442 456 470 484 498 512 526 540 554 568 582 596 610 624 638" xml:space="preserve" y="527.2175" stroke="none">成人用品市场，获得了国内各大媒体争相报道，由此可见春意谷在成人市场的领先地位</text>
<text x="134 148 162 176 190 204 218 232 246 260 274 288 302 316 330 344 358 370.4333 384.4333 398.4333 412.4333 426.4333 440.4333 452.8667 466.8667 480.8667 493.3 507.3 521.3 535.3 549.3 563.3 577.3 591.3 605.3 617.7333 631.7333 645.7333 659.7333" xml:space="preserve" y="568.8174" stroke="none">作为一个已有八年沉淀的春意谷商城，分别在上海、广州、赣州成立了分公司，做到了从</text>
<text x="120 134 148 162 176 190 204 218 232 246 260 274 288 302 316 330 344 358 372 386 400 414 428" xml:space="preserve" y="589.6174" stroke="none">多个城市辐射到全国范围的服务体系。春意谷商城（</text>
<a fill="blue" xlink:href="http://www.chunyigu.com" font-family="'Times New Roman'" clip-path="url(#clipPath1)" stroke="none">
<text x="442 452.108 462.216 471.4148 474.9148 481.1308 488.1308 495.1308 502.1308 509.1448 513.0369 520.0369 527.0369 530.5369 536.7529 543.7529" y="589.6174" xml:space="preserve">www.chunyigu.com</text>
</a>
</g>
<g fill="blue" text-rendering="optimizeSpeed" font-size="14" font-family="'Times New Roman'" stroke="blue">
<line y2="591" fill="none" x1="443" clip-path="url(#clipPath1)" x2="554" y1="591"/>
</g>
<g font-family="'SimSun'" font-size="14">
<text x="561.6448 575.6448 589.6448 603.6448 617.6448 631.6448 645.6448 659.6448" xml:space="preserve" y="589.6174" stroke="none">）让每一个来这里</text>
<text x="120 134 148 162 176 190 204 218 232 246 260 281" xml:space="preserve" y="610.4174" stroke="none">寻找快乐的人们都能感受到</text>
<text x="295" xml:space="preserve" y="610.4174" clip-path="url(#clipPath1)" font-family="'Times New Roman'" stroke="none">“</text>
<text x="301.216 315.216 329.216 343.216 357.216 371.216 385.216 399.216" xml:space="preserve" y="610.4174" stroke="none">享受生活、享受爱</text>
<text x="413.216" xml:space="preserve" y="610.4174" clip-path="url(#clipPath1)" font-family="'Times New Roman'" stroke="none">”</text>
<text x="419.432 433.432 447.432 461.432 475.432 489.432 503.432 517.432 531.432 545.432 559.432 573.432 587.432 601.432 615.432 629.432 643.432 657.432" xml:space="preserve" y="610.4174" stroke="none">的愉悦。在所有行业电子商务网站中，春</text>
<text x="120 134 148 162 176 190 204 218 232 246 260 274 288 302 316 330 344 358 372 386 400 414 428 442 456 470 484 498 505.7333 519.7333 533.7333 547.7333 561.7333 575.7333 589.7333 603.7333 617.7333 631.7333 645.7333 659.7333" xml:space="preserve" y="631.2174" stroke="none">意谷商城权威性地确立了其在中国成人用品行业中的领先地位。通过不断的创新得到了数百</text>
<text x="120 134 148 162 176 190 204 218 232 246 267 281 295 309 323 337 351 365 379 393 407 421 435 449 463 477 491 505 519 533 547 561 575 589 603 617 631" xml:space="preserve" y="652.0174" stroke="none">万用户的广泛认可，体现了春意谷商城一贯稳健的企业发展节奏和深厚的经营内力。</text>
</g>
</g>
</svg>
