<?xml version="1.0" encoding="UTF-8"?><svg fill-opacity="1" color-rendering="auto" color-interpolation="auto" text-rendering="auto" stroke="black" stroke-linecap="square" stroke-miterlimit="10" shape-rendering="auto" stroke-opacity="1" fill="black" preserveAspectRatio="xMinYMin meet" stroke-dasharray="none" font-weight="normal" stroke-width="1" viewBox="0 0 1122 793" font-family="'Dialog'" font-style="normal" stroke-linejoin="miter" font-size="12" stroke-dashoffset="0" image-rendering="auto" xmlns="http://www.w3.org/2000/svg">
<!--Generated by the Batik Graphics2D SVG Generator-->
<defs id="genericDefs"/>
<g>
<defs id="defs1">
<clipPath clipPathUnits="userSpaceOnUse" id="clipPath1">
<path d="M0 0 L1122 0 L1122 793 L0 793 L0 0 Z"/>
</clipPath>
</defs>
<g font-family="'SimSun'" font-size="16">
<text x="96 112 128" xml:space="preserve" y="146.6947" stroke="none">问题：</text>
<text x="96" xml:space="preserve" y="213.3614" clip-path="url(#clipPath1)" font-family="'Times New Roman'" stroke="none">1</text>
<text x="104 120 136 152 168 184 200 216 232 248 264 280 296 312 328 344 360 376 392" xml:space="preserve" y="213.3614" stroke="none">、浙商银行、贝斯美，没有今日左峰的数值</text>
<text x="96" xml:space="preserve" y="313.3614" clip-path="url(#clipPath1)" font-family="'Times New Roman'" stroke="none">2</text>
<text x="104 120 136 152 168 184 200 216 232 248 264 280 296 312 328 344 360 376 392 408" xml:space="preserve" y="313.3614" stroke="none">、部分股票首日为左峰的信号并没有体现出来</text>
<text x="96 112 128 144 160" xml:space="preserve" y="346.6947" stroke="none">长阳科技，</text>
<text x="176 184 192 200 208 212.448 219.8542 227.8542 232.3022 240.3022" xml:space="preserve" y="346.6947" font-family="'Times New Roman'" stroke="none">2019/11/07</text>
<text x="252.3022 268.3022 284.3022 300.3022 316.3022 332.3022 348.3022 364.3022 380.3022 396.3022 412.3022 428.3022 444.3022 460.3022 476.3022 492.3022" xml:space="preserve" y="346.6947" stroke="none">日，越过上市首日的最高价，没信号</text>
<text x="96 112 128 144 160" xml:space="preserve" y="380.0281" stroke="none">鸿泉物联，</text>
<text x="176 184 192 200 208 212.448 219.8542 227.8542 232.3022 240.3022" xml:space="preserve" y="380.0281" font-family="'Times New Roman'" stroke="none">2019/11/07</text>
<text x="252.3022 268.3022 284.3022 300.3022 316.3022 332.3022 348.3022 364.3022 380.3022 396.3022 412.3022 428.3022 444.3022 460.3022 476.3022 492.3022" xml:space="preserve" y="380.0281" stroke="none">日，越过上市首日的最高价，没信号</text>
</g>
</g>
</svg>
